<?xml version="1.0" standalone="no"?>
<!DOCTYPE svg PUBLIC "-//W3C//DTD SVG 20010904//EN"
 "http://www.w3.org/TR/2001/REC-SVG-20010904/DTD/svg10.dtd">
<svg version="1.0" xmlns="http://www.w3.org/2000/svg"
 width="260.000000pt" height="260.000000pt" viewBox="0 0 260.000000 260.000000"
 preserveAspectRatio="xMidYMid meet">
<metadata>
Created by potrace 1.14, written by Peter Selinger 2001-2017
</metadata>
<g transform="translate(0.000000,260.000000) scale(0.100000,-0.100000)"
fill="#000000" stroke="none">
<path d="M585 2391 c-91 -23 -188 -98 -248 -192 -44 -69 -59 -106 -82 -197
-24 -102 -17 -319 14 -407 69 -192 137 -258 406 -396 199 -102 272 -153 315
-220 44 -67 60 -133 60 -240 0 -286 -207 -472 -413 -369 -60 30 -142 116 -195
204 -49 81 -111 238 -137 348 -11 43 -22 78 -25 78 -4 0 -22 -7 -40 -16 l-32
-17 6 -71 c8 -84 31 -310 51 -491 8 -72 15 -147 15 -167 0 -36 1 -38 34 -38
34 0 34 1 41 53 6 48 20 114 30 145 4 11 8 10 20 -2 8 -8 15 -18 15 -23 0 -13
142 -146 176 -165 17 -10 63 -23 102 -29 60 -10 80 -9 142 6 75 18 170 78 202
127 9 14 23 32 31 40 26 26 86 154 107 230 27 96 37 264 20 365 -14 87 -60
212 -94 258 -77 101 -160 162 -363 266 -237 123 -288 166 -333 286 -30 79 -25
232 9 311 13 28 27 52 32 52 5 0 9 5 9 10 0 17 52 60 99 82 36 17 57 19 108
15 79 -8 114 -26 184 -97 73 -75 144 -199 196 -340 23 -63 45 -115 50 -114 26
1 63 26 63 41 0 10 -16 137 -36 283 -19 146 -39 288 -42 315 -7 47 -9 50 -37
50 -28 0 -31 -3 -48 -70 -11 -38 -20 -71 -21 -72 -1 -2 -31 26 -67 60 -99 97
-213 135 -324 108z"/>
<path d="M1745 2379 c-118 -42 -217 -146 -273 -289 -37 -93 -45 -155 -40 -299
5 -124 8 -144 38 -221 67 -173 136 -238 382 -364 250 -128 307 -172 357 -276
24 -51 26 -65 26 -185 0 -108 -3 -138 -20 -175 -26 -61 -88 -152 -115 -170
-12 -8 -28 -20 -34 -26 -20 -19 -78 -34 -128 -34 -119 0 -246 109 -338 290
-37 74 -102 260 -115 332 -8 43 -26 48 -64 19 l-24 -18 16 -159 c9 -88 27
-259 39 -381 l22 -223 32 0 31 0 18 100 c10 58 22 100 29 100 6 0 21 -15 34
-34 40 -59 122 -133 180 -162 49 -24 69 -28 142 -28 121 0 184 26 269 114 114
115 179 281 188 481 11 218 -44 389 -161 501 -73 71 -119 101 -315 205 -192
103 -238 135 -280 197 -77 113 -85 294 -18 422 40 75 135 134 216 134 161 0
319 -189 416 -495 11 -33 20 -62 21 -63 2 -2 19 2 38 9 28 10 36 18 36 38 0
14 -16 143 -36 286 -20 143 -39 283 -43 310 -6 47 -8 50 -37 53 -31 3 -31 3
-49 -72 -9 -42 -19 -76 -22 -76 -3 0 -25 22 -49 49 -103 114 -241 156 -369
110z"/>
</g>
</svg>
